<svg xmlns="http://www.w3.org/2000/svg" xmlns:xlink="http://www.w3.org/1999/xlink" version="1.1" width="1080" height="1080" viewBox="0 0 1080 1080" xml:space="preserve">
<desc>Created with Fabric.js 3.5.0</desc>
<defs>
</defs>
<rect x="0" y="0" width="100%" height="100%" fill="#ffffff"/>
<g transform="matrix(0.0001 0 0 0.0001 269.527 540.0034)" style="" id="684233">
		
<path xml:space="preserve" font-family="Lato" font-size="60" font-style="normal" font-weight="normal" style="stroke: none; stroke-width: 1; stroke-dasharray: none; stroke-linecap: butt; stroke-dashoffset: 0; stroke-linejoin: miter; stroke-miterlimit: 4; is-custom-font: none; font-file-url: none; fill: rgb(0,0,0); fill-rule: nonzero; opacity: 1; white-space: pre;" d="M-161.16-24.14L-143.97 18.85L-148.47 18.85Q-149.25 18.85-149.73 18.46Q-150.21 18.07-150.45 17.47L-150.45 17.47L-154.47 7.09L-173.76 7.09L-177.78 17.47Q-177.99 18.01-178.50 18.43Q-179.01 18.85-179.76 18.85L-179.76 18.85L-184.26 18.85L-167.07-24.14L-161.16-24.14ZM-165.39-14.57L-172.14 2.89L-156.09 2.89L-162.84-14.60Q-163.50-16.22-164.13-18.65L-164.13-18.65Q-164.46-17.42-164.77-16.39Q-165.09-15.35-165.39-14.57L-165.39-14.57ZM-114.81 18.85L-117.99 18.85Q-119.13 18.85-119.43 17.74L-119.43 17.74L-119.91 14.05Q-121.86 16.42-124.36 17.84Q-126.87 19.27-130.11 19.27L-130.11 19.27Q-132.72 19.27-134.85 18.26Q-136.98 17.26-138.48 15.31Q-139.98 13.36-140.79 10.45Q-141.60 7.54-141.60 3.76L-141.60 3.76Q-141.60 0.40-140.70-2.50Q-139.80-5.39-138.10-7.52Q-136.41-9.65-133.98-10.87Q-131.55-12.08-128.46-12.08L-128.46-12.08Q-125.67-12.08-123.69-11.14Q-121.71-10.19-120.15-8.48L-120.15-8.48L-120.15-25.34L-114.81-25.34L-114.81 18.85ZM-128.34 14.95L-128.34 14.95Q-125.73 14.95-123.76 13.75Q-121.80 12.55-120.15 10.36L-120.15 10.36L-120.15-4.34Q-121.62-6.32-123.37-7.12Q-125.13-7.91-127.26-7.91L-127.26-7.91Q-131.52-7.91-133.80-4.88Q-136.08-1.85-136.08 3.76L-136.08 3.76Q-136.08 6.73-135.57 8.84Q-135.06 10.96-134.07 12.32Q-133.08 13.69-131.64 14.32Q-130.20 14.95-128.34 14.95ZM-81.27 18.85L-84.45 18.85Q-85.59 18.85-85.89 17.74L-85.89 17.74L-86.37 14.05Q-88.32 16.42-90.82 17.84Q-93.33 19.27-96.57 19.27L-96.57 19.27Q-99.18 19.27-101.31 18.26Q-103.44 17.26-104.94 15.31Q-106.44 13.36-107.25 10.45Q-108.06 7.54-108.06 3.76L-108.06 3.76Q-108.06 0.40-107.16-2.50Q-106.26-5.39-104.56-7.52Q-102.87-9.65-100.44-10.87Q-98.01-12.08-94.92-12.08L-94.92-12.08Q-92.13-12.08-90.15-11.14Q-88.17-10.19-86.61-8.48L-86.61-8.48L-86.61-25.34L-81.27-25.34L-81.27 18.85ZM-94.80 14.95L-94.80 14.95Q-92.19 14.95-90.22 13.75Q-88.26 12.55-86.61 10.36L-86.61 10.36L-86.61-4.34Q-88.08-6.32-89.83-7.12Q-91.59-7.91-93.72-7.91L-93.72-7.91Q-97.98-7.91-100.26-4.88Q-102.54-1.85-102.54 3.76L-102.54 3.76Q-102.54 6.73-102.03 8.84Q-101.52 10.96-100.53 12.32Q-99.54 13.69-98.10 14.32Q-96.66 14.95-94.80 14.95ZM-44.67 18.85L-59.88 18.85L-59.88-24.14L-46.17-24.14Q-42.21-24.14-39.34-23.36Q-36.48-22.58-34.63-21.14Q-32.79-19.70-31.90-17.62Q-31.02-15.53-31.02-12.92L-31.02-12.92Q-31.02-11.33-31.51-9.86Q-32.01-8.39-33.01-7.13Q-34.02-5.87-35.53-4.88Q-37.05-3.89-39.09-3.26L-39.09-3.26Q-34.38-2.33-31.98 0.13Q-29.58 2.59-29.58 6.61L-29.58 6.61Q-29.58 9.34-30.58 11.59Q-31.59 13.84-33.52 15.46Q-35.46 17.08-38.26 17.96Q-41.07 18.85-44.67 18.85L-44.67 18.85ZM-44.79-0.74L-54.06-0.74L-54.06 14.23L-44.76 14.23Q-42.27 14.23-40.48 13.66Q-38.70 13.09-37.54 12.05Q-36.39 11.02-35.85 9.59Q-35.31 8.17-35.31 6.46L-35.31 6.46Q-35.31 3.13-37.66 1.19Q-40.02-0.74-44.79-0.74L-44.79-0.74ZM-54.06-19.55L-54.06-4.88L-46.38-4.88Q-43.92-4.88-42.12-5.42Q-40.32-5.96-39.13-6.92Q-37.95-7.88-37.38-9.25Q-36.81-10.61-36.81-12.23L-36.81-12.23Q-36.81-16.01-39.09-17.78Q-41.37-19.55-46.17-19.55L-46.17-19.55L-54.06-19.55ZM-9.60-12.02L-9.60-12.02Q-6.27-12.02-3.58-10.91Q-0.90-9.80 0.98-7.76Q2.85-5.72 3.86-2.83Q4.86 0.07 4.86 3.64L4.86 3.64Q4.86 7.24 3.86 10.12Q2.85 13.00 0.98 15.04Q-0.90 17.08-3.58 18.17Q-6.27 19.27-9.60 19.27L-9.60 19.27Q-12.93 19.27-15.61 18.17Q-18.30 17.08-20.19 15.04Q-22.08 13.00-23.10 10.12Q-24.12 7.24-24.12 3.64L-24.12 3.64Q-24.12 0.07-23.10-2.83Q-22.08-5.72-20.19-7.76Q-18.30-9.80-15.61-10.91Q-12.93-12.02-9.60-12.02ZM-9.60 15.10L-9.60 15.10Q-5.10 15.10-2.88 12.08Q-0.66 9.07-0.66 3.67L-0.66 3.67Q-0.66-1.76-2.88-4.79Q-5.10-7.82-9.60-7.82L-9.60-7.82Q-11.88-7.82-13.56-7.04Q-15.24-6.26-16.36-4.79Q-17.49-3.32-18.04-1.18Q-18.60 0.97-18.60 3.67L-18.60 3.67Q-18.60 6.37-18.04 8.50Q-17.49 10.63-16.36 12.08Q-15.24 13.54-13.56 14.32Q-11.88 15.10-9.60 15.10ZM36.03 18.85L32.85 18.85Q31.71 18.85 31.41 17.74L31.41 17.74L30.93 14.05Q28.98 16.42 26.48 17.84Q23.97 19.27 20.73 19.27L20.73 19.27Q18.12 19.27 15.99 18.26Q13.86 17.26 12.36 15.31Q10.86 13.36 10.05 10.45Q9.24 7.54 9.24 3.76L9.24 3.76Q9.24 0.40 10.14-2.50Q11.04-5.39 12.74-7.52Q14.43-9.65 16.86-10.87Q19.29-12.08 22.38-12.08L22.38-12.08Q25.17-12.08 27.15-11.14Q29.13-10.19 30.69-8.48L30.69-8.48L30.69-25.34L36.03-25.34L36.03 18.85ZM22.50 14.95L22.50 14.95Q25.11 14.95 27.08 13.75Q29.04 12.55 30.69 10.36L30.69 10.36L30.69-4.34Q29.22-6.32 27.47-7.12Q25.71-7.91 23.58-7.91L23.58-7.91Q19.32-7.91 17.04-4.88Q14.76-1.85 14.76 3.76L14.76 3.76Q14.76 6.73 15.27 8.84Q15.78 10.96 16.77 12.32Q17.76 13.69 19.20 14.32Q20.64 14.95 22.50 14.95ZM70.86-11.54L53.91 27.82Q53.64 28.42 53.24 28.78Q52.83 29.14 51.99 29.14L51.99 29.14L48.03 29.14L53.58 17.08L41.04-11.54L45.66-11.54Q46.35-11.54 46.74-11.20Q47.13-10.85 47.31-10.43L47.31-10.43L55.44 8.71Q55.71 9.37 55.91 10.03Q56.10 10.69 56.25 11.38L56.25 11.38Q56.46 10.69 56.67 10.03Q56.88 9.37 57.15 8.68L57.15 8.68L65.04-10.43Q65.22-10.91 65.66-11.23Q66.09-11.54 66.60-11.54L66.60-11.54L70.86-11.54ZM83.76-24.14L117.42-24.14L117.42-19.25L103.53-19.25L103.53 18.85L97.71 18.85L97.71-19.25L83.76-19.25L83.76-24.14ZM128.43-12.02L128.43-12.02Q131.16-12.02 133.47-11.11Q135.78-10.19 137.46-8.47Q139.14-6.74 140.09-4.21Q141.03-1.67 141.03 1.57L141.03 1.57Q141.03 2.83 140.76 3.25Q140.49 3.67 139.74 3.67L139.74 3.67L119.52 3.67Q119.58 6.55 120.30 8.68Q121.02 10.81 122.28 12.23Q123.54 13.66 125.28 14.36Q127.02 15.07 129.18 15.07L129.18 15.07Q131.19 15.07 132.65 14.60Q134.10 14.14 135.15 13.60Q136.20 13.06 136.91 12.59Q137.61 12.13 138.12 12.13L138.12 12.13Q138.78 12.13 139.14 12.64L139.14 12.64L140.64 14.59Q139.65 15.79 138.27 16.67Q136.89 17.56 135.32 18.13Q133.74 18.70 132.06 18.98Q130.38 19.27 128.73 19.27L128.73 19.27Q125.58 19.27 122.93 18.20Q120.27 17.14 118.34 15.08Q116.40 13.03 115.32 10.00Q114.24 6.97 114.24 3.04L114.24 3.04Q114.24-0.14 115.22-2.90Q116.19-5.66 118.02-7.69Q119.85-9.71 122.49-10.87Q125.13-12.02 128.43-12.02ZM128.55-8.09L128.55-8.09Q124.68-8.09 122.46-5.86Q120.24-3.62 119.70 0.34L119.70 0.34L136.23 0.34Q136.23-1.52 135.72-3.07Q135.21-4.61 134.22-5.74Q133.23-6.86 131.81-7.48Q130.38-8.09 128.55-8.09ZM142.50 18.85L153.15 3.28L142.92-11.54L148.05-11.54Q148.71-11.54 149.01-11.33Q149.31-11.12 149.55-10.73L149.55-10.73L156.99 0.67Q157.26-0.17 157.77-1.01L157.77-1.01L164.31-10.61Q164.61-11.03 164.91-11.29Q165.21-11.54 165.66-11.54L165.66-11.54L170.58-11.54L160.35 2.98L171.00 18.85L165.87 18.85Q165.21 18.85 164.84 18.50Q164.46 18.16 164.22 17.74L164.22 17.74L156.57 5.83Q156.36 6.70 155.94 7.39L155.94 7.39L148.86 17.74Q148.56 18.16 148.22 18.50Q147.87 18.85 147.27 18.85L147.27 18.85L142.50 18.85ZM185.49 19.33L185.49 19.33Q181.89 19.33 179.96 17.32Q178.02 15.31 178.02 11.53L178.02 11.53L178.02-7.07L174.36-7.07Q173.88-7.07 173.55-7.36Q173.22-7.64 173.22-8.24L173.22-8.24L173.22-10.37L178.20-11.00L179.43-20.39Q179.49-20.84 179.82-21.13Q180.15-21.41 180.66-21.41L180.66-21.41L183.36-21.41L183.36-10.94L192.06-10.94L192.06-7.07L183.36-7.07L183.36 11.17Q183.36 13.09 184.29 14.02Q185.22 14.95 186.69 14.95L186.69 14.95Q187.53 14.95 188.15 14.72Q188.76 14.50 189.21 14.23Q189.66 13.96 189.98 13.73Q190.29 13.51 190.53 13.51L190.53 13.51Q190.95 13.51 191.28 14.02L191.28 14.02L192.84 16.57Q191.46 17.86 189.51 18.59Q187.56 19.33 185.49 19.33Z"/></g>
<g transform="matrix(1 0 0 1 440.4211 460.8344)" style="" id="835281">
		
<path xml:space="preserve" font-family="Lato" font-size="365" font-style="normal" font-weight="normal" style="stroke: none; stroke-width: 1; stroke-dasharray: none; stroke-linecap: butt; stroke-dashoffset: 0; stroke-linejoin: miter; stroke-miterlimit: 4; is-custom-font: none; font-file-url: none; fill: rgb(24,24,24); fill-rule: nonzero; opacity: 1; white-space: pre;" d="M-115.16 20.13L-115.16 20.13Q-112.60 24.51-110.69 29.34Q-108.77 34.18-106.94 39.11L-106.94 39.11Q-105.12 34.00-103.11 29.34Q-101.10 24.69-98.55 19.94L-98.55 19.94L-10.04-140.84Q-7.67-145.04-5.11-145.95Q-2.56-146.86 2.19-146.86L2.19-146.86L28.29-146.86L28.29 114.66L-2.74 114.66L-2.74-77.51Q-2.74-81.34-2.56-85.72Q-2.37-90.10-2.01-94.67L-2.01-94.67L-91.61 68.85Q-96.18 77.07-104.39 77.07L-104.39 77.07L-109.50 77.07Q-117.71 77.07-122.28 68.85L-122.28 68.85L-213.89-95.21Q-213.34-90.47-213.07-85.91Q-212.79-81.34-212.79-77.51L-212.79-77.51L-212.79 114.66L-243.82 114.66L-243.82-146.86L-217.72-146.86Q-212.98-146.86-210.42-145.95Q-207.87-145.04-205.50-140.84L-205.50-140.84L-115.16 20.13ZM65.34-146.86L270.10-146.86L270.10-117.11L185.60-117.11L185.60 114.66L150.20 114.66L150.20-117.11L65.34-117.11L65.34-146.86Z"/></g>
<g transform="matrix(5.4833 0 0 5.4833 712.0825 604.0342)" id="506532">
<g style="" vector-effect="non-scaling-stroke">
		<g transform="matrix(1 0 0 1 0 0)" id="Layer_1">
<rect style="stroke: none; stroke-width: 1; stroke-dasharray: none; stroke-linecap: butt; stroke-dashoffset: 0; stroke-linejoin: miter; stroke-miterlimit: 4; is-custom-font: none; font-file-url: none; fill: none; fill-rule: nonzero; opacity: 1;" x="-25" y="-25" rx="0" ry="0" width="50" height="50"/>
</g>
		<g transform="matrix(1 0 0 1 10 -19)" id="Layer_1">
<ellipse style="stroke: rgb(0,0,0); stroke-width: 2; stroke-dasharray: none; stroke-linecap: round; stroke-dashoffset: 0; stroke-linejoin: round; stroke-miterlimit: 10; is-custom-font: none; font-file-url: none; fill: none; fill-rule: nonzero; opacity: 1;" cx="0" cy="0" rx="14" ry="5"/>
</g>
		<g transform="matrix(1 0 0 1 10 -12.5)" id="Layer_1">
<path style="stroke: rgb(0,0,0); stroke-width: 2; stroke-dasharray: none; stroke-linecap: round; stroke-dashoffset: 0; stroke-linejoin: round; stroke-miterlimit: 10; is-custom-font: none; font-file-url: none; fill: none; fill-rule: nonzero; opacity: 1;" transform=" translate(-35, -12.5)" d="M 21 7 c 0 0.912 0 5.088 0 6 c 0 2.761 6.266 5 14 5 s 14 -2.239 14 -5 c 0 -0.912 0 -5.088 0 -6" stroke-linecap="round"/>
</g>
		<g transform="matrix(1 0 0 1 13.775 -5.5)" id="Layer_1">
<path style="stroke: rgb(0,0,0); stroke-width: 2; stroke-dasharray: none; stroke-linecap: round; stroke-dashoffset: 0; stroke-linejoin: round; stroke-miterlimit: 10; is-custom-font: none; font-file-url: none; fill: none; fill-rule: nonzero; opacity: 1;" transform=" translate(-38.775, -19.5)" d="M 28.55 24.439 C 30.48 24.797 32.674 25 35 25 c 7.734 0 14 -2.239 14 -5 c 0 -0.912 0 -5.088 0 -6" stroke-linecap="round"/>
</g>
		<g transform="matrix(1 0 0 1 -4 -8.865)" id="Layer_1">
<path style="stroke: rgb(0,0,0); stroke-width: 2; stroke-dasharray: none; stroke-linecap: round; stroke-dashoffset: 0; stroke-linejoin: round; stroke-miterlimit: 10; is-custom-font: none; font-file-url: none; fill: none; fill-rule: nonzero; opacity: 1;" transform=" translate(-21, -16.135)" d="M 21 14 c 0 0.912 0 4.27 0 4.27" stroke-linecap="round"/>
</g>
		<g transform="matrix(1 0 0 1 14.0125 1.5)" id="Layer_1">
<path style="stroke: rgb(0,0,0); stroke-width: 2; stroke-dasharray: none; stroke-linecap: round; stroke-dashoffset: 0; stroke-linejoin: round; stroke-miterlimit: 10; is-custom-font: none; font-file-url: none; fill: none; fill-rule: nonzero; opacity: 1;" transform=" translate(-39.0125, -26.5)" d="M 29.025 31.523 C 30.837 31.829 32.862 32 35 32 c 7.734 0 14 -2.238 14 -5 c 0 -0.912 0 -5.088 0 -6" stroke-linecap="round"/>
</g>
		<g transform="matrix(1 0 0 1 13.974 8.5)" id="Layer_1">
<path style="stroke: rgb(0,0,0); stroke-width: 2; stroke-dasharray: none; stroke-linecap: round; stroke-dashoffset: 0; stroke-linejoin: round; stroke-miterlimit: 10; is-custom-font: none; font-file-url: none; fill: none; fill-rule: nonzero; opacity: 1;" transform=" translate(-38.974, -33.5)" d="M 28.948 38.51 C 30.779 38.824 32.832 39 35 39 c 7.734 0 14 -2.238 14 -5 c 0 -0.912 0 -5.088 0 -6" stroke-linecap="round"/>
</g>
		<g transform="matrix(1 0 0 1 -10 -2)" id="Layer_1">
<ellipse style="stroke: rgb(0,0,0); stroke-width: 2; stroke-dasharray: none; stroke-linecap: round; stroke-dashoffset: 0; stroke-linejoin: round; stroke-miterlimit: 10; is-custom-font: none; font-file-url: none; fill: none; fill-rule: nonzero; opacity: 1;" cx="0" cy="0" rx="14" ry="5"/>
</g>
		<g transform="matrix(1 0 0 1 -10 4.5)" id="Layer_1">
<path style="stroke: rgb(0,0,0); stroke-width: 2; stroke-dasharray: none; stroke-linecap: round; stroke-dashoffset: 0; stroke-linejoin: round; stroke-miterlimit: 10; is-custom-font: none; font-file-url: none; fill: none; fill-rule: nonzero; opacity: 1;" transform=" translate(-15, -29.5)" d="M 1 24 c 0 0.912 0 5.088 0 6 c 0 2.762 6.266 5 14 5 s 14 -2.238 14 -5 c 0 -0.912 0 -5.088 0 -6" stroke-linecap="round"/>
</g>
		<g transform="matrix(1 0 0 1 -10 11.5)" id="Layer_1">
<path style="stroke: rgb(0,0,0); stroke-width: 2; stroke-dasharray: none; stroke-linecap: round; stroke-dashoffset: 0; stroke-linejoin: round; stroke-miterlimit: 10; is-custom-font: none; font-file-url: none; fill: none; fill-rule: nonzero; opacity: 1;" transform=" translate(-15, -36.5)" d="M 1 31 c 0 0.912 0 5.088 0 6 c 0 2.762 6.266 5 14 5 s 14 -2.238 14 -5 c 0 -0.912 0 -5.088 0 -6" stroke-linecap="round"/>
</g>
		<g transform="matrix(1 0 0 1 -10 18.5)" id="Layer_1">
<path style="stroke: rgb(0,0,0); stroke-width: 2; stroke-dasharray: none; stroke-linecap: round; stroke-dashoffset: 0; stroke-linejoin: round; stroke-miterlimit: 10; is-custom-font: none; font-file-url: none; fill: none; fill-rule: nonzero; opacity: 1;" transform=" translate(-15, -43.5)" d="M 1 38 c 0 0.912 0 5.088 0 6 c 0 2.762 6.266 5 14 5 s 14 -2.238 14 -5 c 0 -0.912 0 -5.088 0 -6" stroke-linecap="round"/>
</g>
</g>
</g>
</svg>